<mxfile host="app.diagrams.net" modified="2023-10-18T09:41:34.037Z" agent="Mozilla/5.0 (Macintosh; Intel Mac OS X 10_15_7) AppleWebKit/537.36 (KHTML, like Gecko) Chrome/116.0.0.0 Safari/537.36" version="21.8.0" etag="DUWcJ-UJ3eIEtsaCnXa1" type="github">
  <diagram name="第 1 页" id="Folhx8cBlLU09I4cg0l0">
    <mxGraphModel>
      <root>
        <mxCell id="0" />
        <mxCell id="1" parent="0" />
      </root>
    </mxGraphModel>
  </diagram>
</mxfile>
